<svg xmlns="http://www.w3.org/2000/svg" viewBox="0 0 314.22 228.03"><defs><style>.cls-1{fill:#231f20;}.cls-10,.cls-11,.cls-12,.cls-2,.cls-3,.cls-4,.cls-5,.cls-6,.cls-7,.cls-9{fill:none;}.cls-2{stroke:#939598;}.cls-10,.cls-11,.cls-12,.cls-2,.cls-3,.cls-4,.cls-5,.cls-6,.cls-7,.cls-8,.cls-9{stroke-miterlimit:10;}.cls-3{stroke:#a6a8ab;}.cls-4,.cls-5,.cls-6,.cls-7,.cls-8{stroke:#231f20;}.cls-5{stroke-dasharray:1.99 1.99;}.cls-6{stroke-dasharray:2.01 2.01;}.cls-7{stroke-dasharray:1.98 1.98;}.cls-8{fill:#fff;}.cls-9{stroke:#2e358e;}.cls-10,.cls-11,.cls-12,.cls-9{stroke-width:2px;}.cls-10{stroke:#00a550;stroke-dasharray:5 2;}.cls-11{stroke:#ea2127;stroke-dasharray:2 2;}.cls-12{stroke:#802a8d;stroke-dasharray:3 3;}</style></defs><g id="Layer_2" data-name="Layer 2"><g id="Layer_2-2" data-name="Layer 2"><path class="cls-1" d="M16.59,30.23h1.72v7.54h-1V31.09h-.74Z"/><path class="cls-1" d="M21.91,30.14c.78,0,1.29.49,1.53,1.48A11,11,0,0,1,23.62,34a11,11,0,0,1-.18,2.38c-.24,1-.75,1.48-1.53,1.48s-1.28-.49-1.53-1.48A11,11,0,0,1,20.2,34a11,11,0,0,1,.18-2.38C20.63,30.63,21.14,30.14,21.91,30.14ZM22.64,34a12.72,12.72,0,0,0-.11-2.07c-.1-.59-.31-.89-.62-.89s-.51.3-.62.89A14,14,0,0,0,21.18,34a14,14,0,0,0,.11,2.07c.11.59.32.89.62.89s.52-.3.62-.89A12.72,12.72,0,0,0,22.64,34Z"/><path class="cls-1" d="M26,30.14c.78,0,1.29.49,1.53,1.48A11,11,0,0,1,27.73,34a11,11,0,0,1-.18,2.38c-.24,1-.75,1.48-1.53,1.48s-1.28-.49-1.53-1.48A11,11,0,0,1,24.31,34a11,11,0,0,1,.18-2.38C24.74,30.63,25.25,30.14,26,30.14ZM26.75,34a12.72,12.72,0,0,0-.11-2.07c-.1-.59-.31-.89-.62-.89s-.51.3-.62.89A14,14,0,0,0,25.29,34a14,14,0,0,0,.11,2.07c.11.59.32.89.62.89s.52-.3.62-.89A12.72,12.72,0,0,0,26.75,34Z"/><path class="cls-1" d="M22,53.8h-1.1l1.51-3.15,0,0a1.06,1.06,0,0,1-.76.3c-.86,0-1.3-.73-1.3-2.19A4.66,4.66,0,0,1,20.54,47a1.36,1.36,0,0,1,1.37-.85A1.37,1.37,0,0,1,23.3,47a4.59,4.59,0,0,1,.24,1.72,7.52,7.52,0,0,1-.3,2.16,12.53,12.53,0,0,1-.83,2ZM21.91,50c.28,0,.47-.19.55-.59a4.73,4.73,0,0,0,.06-.91c0-1-.2-1.46-.61-1.46s-.59.51-.59,1.52S21.52,50,21.91,50Z"/><path class="cls-1" d="M26,46.17c.78,0,1.29.5,1.53,1.48A11,11,0,0,1,27.73,50a11,11,0,0,1-.18,2.38c-.24,1-.75,1.48-1.53,1.48s-1.28-.49-1.53-1.48A11,11,0,0,1,24.31,50a11,11,0,0,1,.18-2.38C24.74,46.67,25.25,46.17,26,46.17ZM26.75,50A12.72,12.72,0,0,0,26.64,48c-.1-.59-.31-.89-.62-.89s-.51.3-.62.89A14,14,0,0,0,25.29,50a14,14,0,0,0,.11,2.07c.11.6.32.89.62.89s.52-.29.62-.89A12.72,12.72,0,0,0,26.75,50Z"/><path class="cls-1" d="M21.18,65.76v0c-.55-.18-.83-.74-.83-1.68,0-1.24.5-1.85,1.5-1.85a1.52,1.52,0,0,1,1.29.49,2.16,2.16,0,0,1,.34,1.36c0,.94-.27,1.5-.82,1.69h0c.6.14.89.75.89,1.82a3.63,3.63,0,0,1-.28,1.61,1.38,1.38,0,0,1-1.35.74c-1.08,0-1.63-.74-1.63-2.21a4.19,4.19,0,0,1,.12-1.18A1.08,1.08,0,0,1,21.18,65.76ZM21.91,69c.42,0,.62-.42.62-1.26s-.2-1.48-.62-1.48-.45.19-.54.57a4.73,4.73,0,0,0-.06.91Q21.31,69,21.91,69Zm0-3.72c.37,0,.55-.39.55-1.15s-.18-1-.55-1-.56.35-.56,1S21.55,65.31,21.92,65.31Z"/><path class="cls-1" d="M26,62.21c.78,0,1.29.49,1.53,1.48a11,11,0,0,1,.18,2.38,11,11,0,0,1-.18,2.38c-.24,1-.75,1.48-1.53,1.48s-1.28-.5-1.53-1.48a11,11,0,0,1-.18-2.38,11,11,0,0,1,.18-2.38C24.74,62.7,25.25,62.21,26,62.21Zm.73,3.86A12.72,12.72,0,0,0,26.64,64c-.1-.6-.31-.89-.62-.89s-.51.29-.62.89a19.53,19.53,0,0,0,0,4.14c.11.59.32.89.62.89s.52-.3.62-.89A12.72,12.72,0,0,0,26.75,66.07Z"/><path class="cls-1" d="M20.24,78.33h3.37l-2.29,7.54H20.25l2.1-6.68H20.24Z"/><path class="cls-1" d="M26,78.24c.78,0,1.29.5,1.53,1.48a15.82,15.82,0,0,1,0,4.76C27.31,85.47,26.8,86,26,86s-1.28-.49-1.53-1.48a15.82,15.82,0,0,1,0-4.76C24.74,78.74,25.25,78.24,26,78.24Zm.73,3.86A12.72,12.72,0,0,0,26.64,80c-.1-.59-.31-.89-.62-.89s-.51.3-.62.89a19.53,19.53,0,0,0,0,4.14c.11.6.32.89.62.89s.52-.29.62-.89A12.72,12.72,0,0,0,26.75,82.1Z"/><path class="cls-1" d="M21.82,94.36h1.09l-1.47,3.23h0a1.14,1.14,0,0,1,.77-.34,1.12,1.12,0,0,1,1.12.84,4.64,4.64,0,0,1,.19,1.53,3.64,3.64,0,0,1-.26,1.61,1.37,1.37,0,0,1-1.36.75,1.38,1.38,0,0,1-1.37-.84,4.37,4.37,0,0,1-.26-1.71,8.08,8.08,0,0,1,.44-2.64C20.88,96.38,21.24,95.57,21.82,94.36Zm.7,5.29a4.21,4.21,0,0,0-.07-.92c-.08-.38-.26-.57-.52-.57s-.62.49-.62,1.47.21,1.46.62,1.46S22.52,100.61,22.52,99.65Z"/><path class="cls-1" d="M26,94.27c.78,0,1.29.5,1.53,1.48a15.82,15.82,0,0,1,0,4.76c-.24,1-.75,1.48-1.53,1.48s-1.28-.49-1.53-1.48a15.82,15.82,0,0,1,0-4.76C24.74,94.77,25.25,94.27,26,94.27Zm.73,3.86a12.72,12.72,0,0,0-.11-2.07c-.1-.59-.31-.89-.62-.89s-.51.3-.62.89a19.53,19.53,0,0,0,0,4.14c.11.6.32.89.62.89s.52-.29.62-.89A12.72,12.72,0,0,0,26.75,98.13Z"/><path class="cls-1" d="M21.07,110.4h2.4v.86H21.85l-.24,1.91a1.72,1.72,0,0,1,1.49.56,2.31,2.31,0,0,1,.47,1.56,3.44,3.44,0,0,1-.46,1.89,1.84,1.84,0,0,1-1.66.85,3,3,0,0,1-1.17-.31l.26-.89a2.1,2.1,0,0,0,.88.3,1,1,0,0,0,.9-.59,2.31,2.31,0,0,0,.23-1.09c0-1-.43-1.48-1.31-1.48a2.64,2.64,0,0,0-.61.09Z"/><path class="cls-1" d="M26,110.31c.78,0,1.29.49,1.53,1.48a15.82,15.82,0,0,1,0,4.76c-.24,1-.75,1.48-1.53,1.48s-1.28-.5-1.53-1.48a15.82,15.82,0,0,1,0-4.76C24.74,110.8,25.25,110.31,26,110.31Zm.73,3.86a12.72,12.72,0,0,0-.11-2.07c-.1-.6-.31-.89-.62-.89s-.51.29-.62.89a19.53,19.53,0,0,0,0,4.14c.11.59.32.89.62.89s.52-.3.62-.89A12.72,12.72,0,0,0,26.75,114.17Z"/><path class="cls-1" d="M23.17,126.43v4.73h.48v.74h-.48V134h-1V131.9h-2V131l2-4.61Zm-1,4.73V128L21,131.16Z"/><path class="cls-1" d="M26,126.34c.78,0,1.29.49,1.53,1.48a15.82,15.82,0,0,1,0,4.76c-.24,1-.75,1.48-1.53,1.48s-1.28-.49-1.53-1.48a15.82,15.82,0,0,1,0-4.76C24.74,126.83,25.25,126.34,26,126.34Zm.73,3.86a12.72,12.72,0,0,0-.11-2.07c-.1-.59-.31-.89-.62-.89s-.51.3-.62.89a19.53,19.53,0,0,0,0,4.14c.11.59.32.89.62.89s.52-.3.62-.89A12.72,12.72,0,0,0,26.75,130.2Z"/><path class="cls-1" d="M21.67,146.54h-.3v-.9h.13a1.07,1.07,0,0,0,.85-.27,1.47,1.47,0,0,0,.19-.88c0-.81-.19-1.21-.58-1.21s-.59.32-.59,1v.23h-1v-.07a3.16,3.16,0,0,1,.25-1.45,1.33,1.33,0,0,1,1.27-.59c1.05,0,1.57.65,1.57,2a3.54,3.54,0,0,1-.12,1.06,1,1,0,0,1-.72.72v0q.93.23.93,1.74c0,1.48-.57,2.23-1.73,2.23s-1.59-.58-1.59-1.75v-.23h1v.24q0,.84.63.84a.62.62,0,0,0,.62-.52,3.27,3.27,0,0,0,.09-.89C22.57,147,22.27,146.54,21.67,146.54Z"/><path class="cls-1" d="M26,142.38c.78,0,1.29.49,1.53,1.48a15.82,15.82,0,0,1,0,4.76c-.24,1-.75,1.48-1.53,1.48s-1.28-.5-1.53-1.48a15.82,15.82,0,0,1,0-4.76C24.74,142.87,25.25,142.38,26,142.38Zm.73,3.86a12.72,12.72,0,0,0-.11-2.07c-.1-.6-.31-.89-.62-.89s-.51.29-.62.89a19.53,19.53,0,0,0,0,4.14c.11.59.32.89.62.89s.52-.3.62-.89A12.72,12.72,0,0,0,26.75,146.24Z"/><path class="cls-1" d="M21.94,158.41q1.68,0,1.68,1.86a9.23,9.23,0,0,1-1.3,3.69l-.64,1.22h1.87V166H20.23l1.83-3.87a4.73,4.73,0,0,0,.54-2c0-.6-.22-.9-.67-.9q-.42,0-.54.6a6.65,6.65,0,0,0,0,.84v.2h-1v-.27a3.63,3.63,0,0,1,.26-1.59A1.39,1.39,0,0,1,21.94,158.41Z"/><path class="cls-1" d="M26,158.41c.78,0,1.29.49,1.53,1.48a15.82,15.82,0,0,1,0,4.76c-.24,1-.75,1.48-1.53,1.48s-1.28-.49-1.53-1.48a15.82,15.82,0,0,1,0-4.76C24.74,158.9,25.25,158.41,26,158.41Zm.73,3.86a12.72,12.72,0,0,0-.11-2.07c-.1-.6-.31-.89-.62-.89s-.51.29-.62.89a19.53,19.53,0,0,0,0,4.14c.11.59.32.89.62.89s.52-.3.62-.89A12.72,12.72,0,0,0,26.75,162.27Z"/><path class="cls-1" d="M20.7,174.53h1.72v7.54h-1v-6.68H20.7Z"/><path class="cls-1" d="M26,174.44c.78,0,1.29.5,1.53,1.48a15.82,15.82,0,0,1,0,4.76c-.24,1-.75,1.48-1.53,1.48s-1.28-.49-1.53-1.48a15.82,15.82,0,0,1,0-4.76C24.74,174.94,25.25,174.44,26,174.44Zm.73,3.86a12.72,12.72,0,0,0-.11-2.07c-.1-.59-.31-.89-.62-.89s-.51.3-.62.89a19.53,19.53,0,0,0,0,4.14c.11.6.32.89.62.89s.52-.29.62-.89A12.72,12.72,0,0,0,26.75,178.3Z"/><path class="cls-1" d="M26,190.47c.78,0,1.29.5,1.53,1.48a15.82,15.82,0,0,1,0,4.76c-.24,1-.75,1.48-1.53,1.48s-1.28-.49-1.53-1.48a15.82,15.82,0,0,1,0-4.76C24.74,191,25.25,190.47,26,190.47Zm.73,3.86a12.72,12.72,0,0,0-.11-2.07c-.1-.59-.31-.89-.62-.89s-.51.3-.62.89a19.53,19.53,0,0,0,0,4.14c.11.6.32.89.62.89s.52-.29.62-.89A12.72,12.72,0,0,0,26.75,194.33Z"/><path class="cls-1" d="M.76,138.17H8.3v1H.76Z"/><path class="cls-1" d="M0,136.19H8.3v.94H0Z"/><path class="cls-1" d="M0,134.39H8.3v.94H0Z"/><path class="cls-1" d="M3.25,133.52v-.94H6.41a2.8,2.8,0,0,0,.72-.05.56.56,0,0,0,0-1.05,4.16,4.16,0,0,0-.7,0H3.25v-.94H6.66a2.11,2.11,0,0,1,1.25.3A1.37,1.37,0,0,1,8.38,132a1.41,1.41,0,0,1-.53,1.29,2.67,2.67,0,0,1-1.39.27Z"/><path class="cls-1" d="M3.25,128.69h.62a1,1,0,0,1-.7-1,.84.84,0,0,1,.7-.92v0a1.07,1.07,0,0,1-.7-1c0-.75.41-1.12,1.22-1.12H8.3v.94H4.76q-.75,0-.75.51a.5.5,0,0,0,.37.55,2.75,2.75,0,0,0,.71.05H8.3v.94H4.87a1.6,1.6,0,0,0-.58.07.44.44,0,0,0-.28.47.49.49,0,0,0,.38.5,2.72,2.72,0,0,0,.7.06H8.3v.95H3.25Z"/><path class="cls-1" d="M2.35,123.26a.63.63,0,0,1-.18.45.64.64,0,0,1-.45.18.6.6,0,0,1-.44-.18.63.63,0,0,1-.18-.45.6.6,0,0,1,.18-.43.59.59,0,0,1,.44-.19.64.64,0,0,1,.45.18A.6.6,0,0,1,2.35,123.26Zm.9-.46H8.3v.94H3.25Z"/><path class="cls-1" d="M3.25,121h.58a1.1,1.1,0,0,1-.66-1,.88.88,0,0,1,.54-.9,3.3,3.3,0,0,1,1.12-.14H8.3v.94H4.81c-.53,0-.8.19-.8.56a.51.51,0,0,0,.41.52,2.94,2.94,0,0,0,.73,0H8.3v.94H3.25Z"/><path class="cls-1" d="M8.3,116.05H7.65a1.35,1.35,0,0,1,.53.35.84.84,0,0,1,.2.59q0,1.2-2.67,1.2c-1.69,0-2.54-.41-2.54-1.23a1,1,0,0,1,.64-.91H3.25v-.94H8.3Zm-.76.56c0-.39-.59-.59-1.77-.59s-1.76.2-1.76.59.24.49.73.57a6.21,6.21,0,0,0,1,0,6.28,6.28,0,0,0,1,0C7.3,117.1,7.54,116.91,7.54,116.61Z"/><path class="cls-1" d="M1.82,114.05v-.94H3.25v-.5H4v.5H8.3v.94H4v.51H3.25v-.51Z"/><path class="cls-1" d="M2.35,111.57a.61.61,0,0,1-.18.45.64.64,0,0,1-.45.18.6.6,0,0,1-.44-.18.61.61,0,0,1-.18-.45.6.6,0,0,1,.18-.43.59.59,0,0,1,.44-.19.64.64,0,0,1,.45.18A.6.6,0,0,1,2.35,111.57Zm.9-.46H8.3v.94H3.25Z"/><path class="cls-1" d="M8.38,108.8c0,1.06-.86,1.59-2.59,1.59s-2.62-.53-2.62-1.59.87-1.59,2.62-1.59S8.38,107.74,8.38,108.8Zm-.86,0c0-.3-.24-.5-.73-.59a9,9,0,0,0-1,0,9.43,9.43,0,0,0-1,0c-.49.09-.73.29-.73.59s.24.5.73.58a6.21,6.21,0,0,0,1,.05,5.94,5.94,0,0,0,1-.05C7.28,109.3,7.52,109.1,7.52,108.8Z"/><path class="cls-1" d="M3.25,105.55h.58a1.1,1.1,0,0,1-.66-1,.88.88,0,0,1,.54-.9,3.3,3.3,0,0,1,1.12-.14H8.3v.94H4.81c-.53,0-.8.19-.8.56a.51.51,0,0,0,.41.52,2.94,2.94,0,0,0,.73,0H8.3v.94H3.25Z"/><path class="cls-1" d="M.66,99.69l.23-.93a11.5,11.5,0,0,0,4,.87,11.79,11.79,0,0,0,4.27-.87l.24.93a11.59,11.59,0,0,1-4.45.89A10.64,10.64,0,0,1,.66,99.69Z"/><path class="cls-1" d="M.67,96.75c0-.71.6-1.07,1.79-1.07s1.79.36,1.79,1.07-.6,1.07-1.79,1.07S.67,97.47.67,96.75Zm.09-2.82V93.3L8.3,97v.63Zm2.89,2.82c0-.26-.4-.4-1.19-.4s-1.19.14-1.19.4.4.4,1.19.4S3.65,97,3.65,96.75Zm1.16-2.54c0-.71.6-1.07,1.79-1.07s1.79.36,1.79,1.07-.6,1.07-1.79,1.07S4.81,94.93,4.81,94.21Zm.6,0c0,.27.39.4,1.18.4s1.2-.13,1.2-.4-.4-.4-1.2-.4S5.41,94,5.41,94.21Z"/><path class="cls-1" d="M5,90.36a11.78,11.78,0,0,1,4.45.89l-.24.93a11.79,11.79,0,0,0-4.27-.87,11.5,11.5,0,0,0-4,.87l-.23-.93A10.81,10.81,0,0,1,5,90.36Z"/><path class="cls-1" d="M124.89,9.68v-9h1.79c1.14,0,3.18.12,3.18,2.59a2.5,2.5,0,0,1-1.28,2.33l1.57,4.12h-1.88L126.7,5.5h0V9.68Zm1.78-5.16H127c.82,0,1.14-.55,1.14-1.29a1,1,0,0,0-1.21-1.13h-.24Z"/><path class="cls-1" d="M135.23,7.1h-2.68c0,.44,0,1.4.64,1.4.43,0,.54-.33.54-.69h1.44c-.15,1.11-.69,2-1.92,2-1.72,0-2.33-1.52-2.33-3s.53-3.28,2.29-3.28c1.12,0,2.15,1,2,2.9ZM133.8,5.91c0-.39-.08-1.11-.61-1.11s-.63.69-.63,1.08v.18h1.24Z"/><path class="cls-1" d="M137.69,0V9.68H136V0Z"/><path class="cls-1" d="M141.19,9h0a1.26,1.26,0,0,1-1.12.8c-1.36,0-1.64-2.18-1.64-3.16s.2-3.14,1.62-3.14a1.22,1.22,0,0,1,1.14.87h0V3.62h1.69V9.68h-1.69Zm.12-2.38c0-.34,0-1.62-.61-1.62s-.6,1.27-.6,1.62,0,1.63.62,1.63S141.31,6.94,141.31,6.62Z"/><path class="cls-1" d="M145.93,1.94V3.62h.7V5h-.7V9.68h-1.69V5h-.59V3.62h.59V1.94Z"/><path class="cls-1" d="M147.17,1.81a1.07,1.07,0,0,1,1.1-1.07,1.08,1.08,0,1,1-1.1,1.07Zm1.92,1.81V9.68H147.4V3.62Z"/><path class="cls-1" d="M151.36,3.62l.8,3.32V7h0l.13-.62.06-.26.6-2.54h1.75L153,9.68h-1.57l-1.74-6.06Z"/><path class="cls-1" d="M159.54,7.1h-2.68c0,.44,0,1.4.64,1.4.43,0,.54-.33.54-.69h1.44c-.15,1.11-.68,2-1.92,2-1.72,0-2.33-1.52-2.33-3s.53-3.28,2.29-3.28c1.12,0,2.15,1,2,2.9Zm-1.43-1.19c0-.39-.08-1.11-.61-1.11s-.62.69-.62,1.08v.18h1.23Z"/><path class="cls-1" d="M165.25.64v9h-1.79v-9Z"/><path class="cls-1" d="M168,0V9.68h-1.69V0Z"/><path class="cls-1" d="M170.52,0V9.68h-1.69V0Z"/><path class="cls-1" d="M173,3.62V6.94c0,.34-.13,1.28.43,1.28s.42-.6.42-.9V3.62h1.68V7.48c0,1.41-.66,2.32-2.16,2.32-1.92,0-2.07-1.44-2.07-2.54V3.62Z"/><path class="cls-1" d="M178.13,4.59h0a1.71,1.71,0,0,1,1.49-1.09,1.07,1.07,0,0,1,1,1h0a1.72,1.72,0,0,1,1.45-1c1.09,0,1.09,1.21,1.09,2V9.68h-1.69V6.39c0-.31.08-1.2-.42-1.2s-.46.41-.46.69v3.8H179V6.28c0-.3.08-1.06-.4-1.06s-.48.38-.48.69V9.68h-1.69V3.62h1.69Z"/><path class="cls-1" d="M183.85,1.81a1.08,1.08,0,1,1,2.15,0,1.08,1.08,0,1,1-2.15,0Zm1.92,1.81V9.68h-1.69V3.62Z"/><path class="cls-1" d="M188.29,4.56h0a1.57,1.57,0,0,1,1.41-1.06c1.24,0,1.14,1.39,1.14,2.27V9.68h-1.69V6.36c0-.32.12-1.15-.42-1.15-.39,0-.46.39-.46.69V9.68H186.6V3.62h1.69Z"/><path class="cls-1" d="M194.36,9h0a1.26,1.26,0,0,1-1.12.8c-1.36,0-1.64-2.18-1.64-3.16s.2-3.14,1.62-3.14a1.22,1.22,0,0,1,1.14.87h0V3.62h1.69V9.68h-1.69Zm.12-2.38c0-.34,0-1.62-.61-1.62s-.6,1.27-.6,1.62,0,1.63.62,1.63S194.48,6.94,194.48,6.62Z"/><path class="cls-1" d="M199.1,1.94V3.62h.7V5h-.7V9.68h-1.69V5h-.59V3.62h.59V1.94Z"/><path class="cls-1" d="M200.34,1.81a1.07,1.07,0,0,1,1.1-1.07,1.08,1.08,0,1,1-1.1,1.07Zm1.92,1.81V9.68h-1.69V3.62Z"/><path class="cls-1" d="M207.58,6.66c0,1.54-.49,3.14-2.3,3.14S203,8.2,203,6.66s.49-3.16,2.3-3.16S207.58,5.11,207.58,6.66Zm-2.91,0c0,.34,0,1.63.61,1.63s.61-1.29.61-1.63,0-1.63-.61-1.63S204.67,6.31,204.67,6.66Z"/><path class="cls-1" d="M210,4.56h0a1.57,1.57,0,0,1,1.41-1.06c1.24,0,1.14,1.39,1.14,2.27V9.68h-1.69V6.36c0-.32.12-1.15-.42-1.15-.39,0-.46.39-.46.69V9.68h-1.69V3.62H210Z"/><path class="cls-1" d="M139.82,218.34v7.54h-1v-7.54Z"/><path class="cls-1" d="M141.81,220.83v.62a1,1,0,0,1,1-.7.84.84,0,0,1,.92.7h0a1.07,1.07,0,0,1,1-.7c.75,0,1.12.4,1.12,1.22v3.91H145v-3.54q0-.75-.51-.75a.5.5,0,0,0-.55.37,3.32,3.32,0,0,0-.05.71v3.21h-.94v-3.43a1.57,1.57,0,0,0-.07-.58.44.44,0,0,0-.47-.28.48.48,0,0,0-.5.38,2.67,2.67,0,0,0-.06.7v3.21h-.95v-5Z"/><path class="cls-1" d="M148.77,225.88v-.65a1.47,1.47,0,0,1-.34.53.89.89,0,0,1-.6.2q-1.2,0-1.2-2.67c0-1.7.41-2.54,1.23-2.54a1,1,0,0,1,.91.64v-.56h.94v5Zm-.56-.76c.39,0,.59-.59.59-1.77s-.2-1.76-.59-1.76-.49.24-.57.73a7.49,7.49,0,0,0,0,1,7.78,7.78,0,0,0,0,1C147.72,224.87,147.91,225.12,148.21,225.12Z"/><path class="cls-1" d="M153.53,220.83v5.09a3.45,3.45,0,0,1-.24,1.52,1.38,1.38,0,0,1-1.3.59,1.5,1.5,0,0,1-1.09-.38,1.43,1.43,0,0,1-.4-1.08v-.14h.91a.81.81,0,0,0,.14.54.55.55,0,0,0,.47.22.49.49,0,0,0,.52-.36,3.32,3.32,0,0,0,.05-.71l0-.84a.87.87,0,0,1-.9.68c-.51,0-.87-.33-1.05-1a6,6,0,0,1-.17-1.6,7,7,0,0,1,.14-1.62q.27-1,1.08-1a1,1,0,0,1,.92.68l0,0,0-.58Zm-.94,2.55c0-1.2-.2-1.79-.61-1.79s-.45.24-.54.73a7.35,7.35,0,0,0-.05,1,6.63,6.63,0,0,0,.06,1c.09.5.27.75.56.75s.48-.24.55-.72A9.72,9.72,0,0,0,152.59,223.38Z"/><path class="cls-1" d="M157.28,223.54H155.2c0,1.05.2,1.58.59,1.58s.59-.32.59-.94h.87a2.07,2.07,0,0,1-.34,1.24,1.42,1.42,0,0,1-2.43-.34,4.7,4.7,0,0,1-.24-1.69c0-1.76.5-2.64,1.51-2.64s1.53.88,1.53,2.64Zm-2.08-.67h1.12c0-.86-.19-1.28-.57-1.28s-.42.16-.5.49A4.33,4.33,0,0,0,155.2,222.87Z"/><path class="cls-1" d="M160.22,218.34h1v2.94h1.51v-2.94h1v7.54h-1v-3.74h-1.51v3.74h-1Z"/><path class="cls-1" d="M167.67,223.54h-2.08c0,1.05.2,1.58.59,1.58s.59-.32.59-.94h.87a2.07,2.07,0,0,1-.34,1.24,1.42,1.42,0,0,1-2.43-.34,4.7,4.7,0,0,1-.24-1.69c0-1.76.5-2.64,1.51-2.64s1.53.88,1.53,2.64Zm-2.08-.67h1.12c0-.86-.19-1.28-.57-1.28s-.42.16-.5.49A4.33,4.33,0,0,0,165.59,222.87Z"/><path class="cls-1" d="M168.86,219.93a.65.65,0,0,1-.45-.19.6.6,0,0,1-.18-.44.59.59,0,0,1,.18-.44.64.64,0,0,1,.45-.18.63.63,0,0,1,.62.62.6.6,0,0,1-.18.44A.61.61,0,0,1,168.86,219.93Zm.46.9v5h-.94v-5Z"/><path class="cls-1" d="M173.15,220.83v5.09a3.45,3.45,0,0,1-.24,1.52,1.38,1.38,0,0,1-1.3.59,1.55,1.55,0,0,1-1.1-.38,1.46,1.46,0,0,1-.39-1.08v-.14H171a.81.81,0,0,0,.14.54.54.54,0,0,0,.46.22.5.5,0,0,0,.53-.36,3.32,3.32,0,0,0,.05-.71l0-.84a.88.88,0,0,1-.9.68c-.51,0-.87-.33-1.05-1a6,6,0,0,1-.17-1.6,7,7,0,0,1,.14-1.62c.18-.68.54-1,1.07-1a1,1,0,0,1,.93.68l0,0,0-.58Zm-.94,2.55c0-1.2-.2-1.79-.61-1.79s-.45.24-.54.73a7.35,7.35,0,0,0-.05,1,6.63,6.63,0,0,0,.06,1c.09.5.27.75.56.75s.48-.24.55-.72A9.72,9.72,0,0,0,172.21,223.38Z"/><path class="cls-1" d="M174,217.58H175v3.83a1.1,1.1,0,0,1,1-.66.88.88,0,0,1,.9.54,3.26,3.26,0,0,1,.14,1.12v3.47h-.94v-3.49c0-.54-.19-.8-.56-.8a.5.5,0,0,0-.52.41,3.56,3.56,0,0,0-.05.73v3.15H174Z"/><path class="cls-1" d="M178.09,219.4H179v1.43h.5v.74H179v4.31h-.94v-4.31h-.51v-.74h.51Z"/><path class="cls-1" d="M183,218.24l.93.23a11.5,11.5,0,0,0-.87,4,11.83,11.83,0,0,0,.87,4.27L183,227a11.82,11.82,0,0,1-.89-4.45A10.74,10.74,0,0,1,183,218.24Z"/><path class="cls-1" d="M185.85,220.83v.62a1,1,0,0,1,1-.7.84.84,0,0,1,.92.7h0a1.07,1.07,0,0,1,1-.7c.75,0,1.12.4,1.12,1.22v3.91H189v-3.54q0-.75-.51-.75a.5.5,0,0,0-.55.37,3.32,3.32,0,0,0-.05.71v3.21H187v-3.43a1.57,1.57,0,0,0-.07-.58.44.44,0,0,0-.47-.28.48.48,0,0,0-.5.38,2.67,2.67,0,0,0-.06.7v3.21h-.95v-5Z"/><path class="cls-1" d="M191.75,220.83v.62a1,1,0,0,1,1-.7.84.84,0,0,1,.92.7h0a1.07,1.07,0,0,1,1-.7c.75,0,1.12.4,1.12,1.22v3.91h-.94v-3.54q0-.75-.51-.75a.5.5,0,0,0-.55.37,3.32,3.32,0,0,0-.05.71v3.21h-.94v-3.43a1.57,1.57,0,0,0-.07-.58.44.44,0,0,0-.47-.28.48.48,0,0,0-.5.38,2.67,2.67,0,0,0-.06.7v3.21h-.95v-5Z"/><path class="cls-1" d="M198.62,222.56a11.82,11.82,0,0,1-.89,4.45l-.93-.24a11.83,11.83,0,0,0,.87-4.27,11.5,11.5,0,0,0-.87-4l.93-.23A10.74,10.74,0,0,1,198.62,222.56Z"/><path class="cls-1" d="M301.4,202.42h2.4v.86h-1.63l-.24,1.91a1.75,1.75,0,0,1,1.5.56,2.33,2.33,0,0,1,.47,1.56,3.52,3.52,0,0,1-.46,1.89,1.85,1.85,0,0,1-1.66.85,2.92,2.92,0,0,1-1.17-.31l.26-.89a2,2,0,0,0,.88.3,1,1,0,0,0,.9-.59,2.44,2.44,0,0,0,.23-1.09c0-1-.44-1.48-1.31-1.48a2.57,2.57,0,0,0-.61.09Z"/><path class="cls-1" d="M305.33,210a.58.58,0,0,1-.43-.18.63.63,0,0,1-.17-.43.58.58,0,0,1,.6-.59.55.55,0,0,1,.42.17.54.54,0,0,1,.18.42.6.6,0,0,1-.18.43A.56.56,0,0,1,305.33,210Z"/><path class="cls-1" d="M307.56,202.42H310v.86h-1.63l-.24,1.91a1.75,1.75,0,0,1,1.5.56,2.33,2.33,0,0,1,.47,1.56,3.52,3.52,0,0,1-.46,1.89,1.85,1.85,0,0,1-1.66.85,2.92,2.92,0,0,1-1.17-.31l.26-.89a2,2,0,0,0,.88.3,1,1,0,0,0,.9-.59,2.44,2.44,0,0,0,.23-1.09c0-1-.44-1.48-1.31-1.48a2.57,2.57,0,0,0-.61.09Z"/><path class="cls-1" d="M312.51,202.33c.77,0,1.28.49,1.53,1.48a15.82,15.82,0,0,1,0,4.76c-.25,1-.76,1.48-1.53,1.48s-1.29-.5-1.53-1.48a15.82,15.82,0,0,1,0-4.76C311.22,202.82,311.73,202.33,312.51,202.33Zm.73,3.86a14,14,0,0,0-.11-2.07c-.11-.6-.32-.89-.62-.89s-.52.29-.62.89a19.53,19.53,0,0,0,0,4.14c.1.59.31.89.62.89s.51-.3.62-.89A14,14,0,0,0,313.24,206.19Z"/><path class="cls-1" d="M163.51,202.33q1.68,0,1.68,1.86a9.31,9.31,0,0,1-1.3,3.68l-.64,1.23h1.87V210H161.8l1.83-3.87a4.77,4.77,0,0,0,.54-2c0-.6-.22-.9-.67-.9q-.44,0-.54.6a5.12,5.12,0,0,0,0,.84v.2h-1v-.27a3.6,3.6,0,0,1,.26-1.59A1.37,1.37,0,0,1,163.51,202.33Z"/><path class="cls-1" d="M166.57,210a.58.58,0,0,1-.43-.18.63.63,0,0,1-.17-.43.58.58,0,0,1,.6-.59.54.54,0,0,1,.42.17.54.54,0,0,1,.18.42.6.6,0,0,1-.18.43A.54.54,0,0,1,166.57,210Z"/><path class="cls-1" d="M168,202.42h3.37L169.05,210H168l2.1-6.68H168Z"/><path class="cls-1" d="M172.91,202.42h2.4v.86h-1.63l-.24,1.91a1.75,1.75,0,0,1,1.5.56,2.33,2.33,0,0,1,.47,1.56,3.52,3.52,0,0,1-.46,1.89,1.84,1.84,0,0,1-1.66.85,3,3,0,0,1-1.17-.31l.26-.89a2,2,0,0,0,.88.3,1,1,0,0,0,.9-.59,2.44,2.44,0,0,0,.23-1.09c0-1-.44-1.48-1.31-1.48a2.57,2.57,0,0,0-.61.09Z"/><path class="cls-1" d="M26.06,202.33c.77,0,1.28.49,1.53,1.48a15.82,15.82,0,0,1,0,4.76c-.25,1-.76,1.48-1.53,1.48s-1.29-.5-1.53-1.48a15.82,15.82,0,0,1,0-4.76C24.77,202.82,25.28,202.33,26.06,202.33Zm.73,3.86a14,14,0,0,0-.11-2.07c-.11-.6-.32-.89-.62-.89s-.52.29-.62.89a19.53,19.53,0,0,0,0,4.14c.1.59.31.89.62.89s.51-.3.62-.89A14,14,0,0,0,26.79,206.19Z"/><path class="cls-1" d="M29.15,210a.58.58,0,0,1-.43-.18.63.63,0,0,1-.17-.43.58.58,0,0,1,.6-.59.55.55,0,0,1,.42.17.54.54,0,0,1,.18.42.6.6,0,0,1-.18.43A.56.56,0,0,1,29.15,210Z"/><path class="cls-1" d="M32.22,202.33c.77,0,1.28.49,1.53,1.48a15.82,15.82,0,0,1,0,4.76c-.25,1-.76,1.48-1.53,1.48s-1.29-.5-1.53-1.48a15.82,15.82,0,0,1,0-4.76C30.93,202.82,31.44,202.33,32.22,202.33Zm.73,3.86a14,14,0,0,0-.11-2.07c-.11-.6-.32-.89-.62-.89s-.52.29-.62.89a19.53,19.53,0,0,0,0,4.14c.1.59.31.89.62.89s.51-.3.62-.89A14,14,0,0,0,33,206.19Z"/><path class="cls-1" d="M36.33,202.33c.77,0,1.28.49,1.53,1.48a15.82,15.82,0,0,1,0,4.76c-.25,1-.76,1.48-1.53,1.48s-1.29-.5-1.53-1.48a15.82,15.82,0,0,1,0-4.76C35,202.82,35.55,202.33,36.33,202.33Zm.73,3.86a14,14,0,0,0-.11-2.07c-.11-.6-.32-.89-.62-.89s-.52.29-.62.89a19.53,19.53,0,0,0,0,4.14c.1.59.31.89.62.89s.51-.3.62-.89A14,14,0,0,0,37.06,206.19Z"/><line class="cls-2" x1="56.86" y1="17.57" x2="56.86" y2="194.32"/><line class="cls-2" x1="81.83" y1="17.57" x2="81.83" y2="194.32"/><line class="cls-2" x1="106.79" y1="17.57" x2="106.79" y2="194.32"/><line class="cls-2" x1="131.76" y1="17.57" x2="131.76" y2="194.32"/><line class="cls-2" x1="156.73" y1="17.57" x2="156.73" y2="194.32"/><line class="cls-2" x1="181.69" y1="17.57" x2="181.69" y2="194.32"/><line class="cls-2" x1="206.66" y1="17.57" x2="206.66" y2="194.32"/><line class="cls-2" x1="231.63" y1="17.57" x2="231.63" y2="194.32"/><line class="cls-2" x1="256.59" y1="17.57" x2="256.59" y2="194.32"/><line class="cls-2" x1="281.56" y1="17.57" x2="281.56" y2="194.32"/><line class="cls-3" x1="32.21" y1="33.66" x2="306.59" y2="33.66"/><line class="cls-2" x1="32.21" y1="49.68" x2="306.59" y2="49.68"/><line class="cls-2" x1="32.21" y1="65.69" x2="306.59" y2="65.69"/><line class="cls-2" x1="32.21" y1="81.71" x2="306.59" y2="81.71"/><line class="cls-2" x1="32.21" y1="97.73" x2="306.59" y2="97.73"/><line class="cls-2" x1="32.21" y1="113.74" x2="306.59" y2="113.74"/><line class="cls-2" x1="32.21" y1="129.76" x2="306.59" y2="129.76"/><line class="cls-2" x1="32.21" y1="145.78" x2="306.59" y2="145.78"/><line class="cls-2" x1="32.21" y1="161.79" x2="306.59" y2="161.79"/><line class="cls-2" x1="32.21" y1="177.81" x2="306.59" y2="177.81"/><rect class="cls-4" x="32.13" y="17.67" width="274.38" height="176.76"/><line class="cls-4" x1="144.37" y1="35.32" x2="144.37" y2="36.32"/><line class="cls-5" x1="144.37" y1="38.31" x2="144.37" y2="192.33"/><line class="cls-4" x1="144.37" y1="193.32" x2="144.37" y2="194.32"/><line class="cls-4" x1="181.69" y1="37.19" x2="181.69" y2="38.19"/><line class="cls-6" x1="181.69" y1="40.21" x2="181.69" y2="192.31"/><line class="cls-4" x1="181.69" y1="193.32" x2="181.69" y2="194.32"/><line class="cls-4" x1="231.63" y1="39.94" x2="231.63" y2="40.94"/><line class="cls-7" x1="231.63" y1="42.92" x2="231.63" y2="192.33"/><line class="cls-4" x1="231.63" y1="193.32" x2="231.63" y2="194.32"/><rect class="cls-8" x="48.13" y="55.22" width="45.11" height="62.72"/><path class="cls-1" d="M68,61h.47V59.4a2.82,2.82,0,0,1,.17-1.17,1,1,0,0,1,1-.53,1.5,1.5,0,0,1,.63.14v1a.86.86,0,0,0-.39-.12.37.37,0,0,0-.4.28,2,2,0,0,0,0,.53V61h.78v.74h-.78v4.31h-.94V61.77H68Z"/><path class="cls-1" d="M73.86,57.78h.79L70.8,67.11H70Z"/><path class="cls-1" d="M75.19,58.54h1.72v7.54h-1V59.4h-.74Z"/><path class="cls-1" d="M79.49,66.16a.58.58,0,0,1-.43-.18.59.59,0,0,1-.17-.43.54.54,0,0,1,.17-.42.57.57,0,0,1,.43-.17.57.57,0,0,1,.42.17.54.54,0,0,1,.18.42.6.6,0,0,1-.18.43A.58.58,0,0,1,79.49,66.16Z"/><path class="cls-1" d="M83.82,58.54v4.73h.48V64h-.48v2.07h-1V64h-2v-.86l2-4.61Zm-1,4.73v-3.2l-1.24,3.2Z"/><path class="cls-1" d="M68,77h.47V75.4a2.82,2.82,0,0,1,.17-1.17,1,1,0,0,1,1-.53,1.5,1.5,0,0,1,.63.14v1a.86.86,0,0,0-.39-.12.37.37,0,0,0-.4.28,2,2,0,0,0,0,.53V77h.78v.74h-.78v4.31h-.94V77.77H68Z"/><path class="cls-1" d="M73.86,73.78h.79L70.8,83.11H70Z"/><path class="cls-1" d="M76.43,74.45q1.68,0,1.68,1.86A9.39,9.39,0,0,1,76.81,80l-.64,1.22H78v.86H74.72l1.83-3.87a4.77,4.77,0,0,0,.54-2c0-.6-.23-.9-.67-.9s-.47.2-.54.6a5.12,5.12,0,0,0,0,.84V77h-1v-.27a3.46,3.46,0,0,1,.26-1.59A1.37,1.37,0,0,1,76.43,74.45Z"/><path class="cls-1" d="M79.49,82.16a.58.58,0,0,1-.43-.18.59.59,0,0,1-.17-.43.54.54,0,0,1,.17-.42.57.57,0,0,1,.43-.17.57.57,0,0,1,.42.17.54.54,0,0,1,.18.42.6.6,0,0,1-.18.43A.58.58,0,0,1,79.49,82.16Z"/><path class="cls-1" d="M81.83,78v0c-.56-.18-.83-.74-.83-1.68,0-1.24.5-1.85,1.5-1.85a1.54,1.54,0,0,1,1.29.49,2.22,2.22,0,0,1,.34,1.36c0,.94-.28,1.5-.82,1.69h0c.59.14.89.75.89,1.82a3.78,3.78,0,0,1-.28,1.61,1.4,1.4,0,0,1-1.35.74c-1.09,0-1.63-.74-1.63-2.21a4.19,4.19,0,0,1,.12-1.18A1.07,1.07,0,0,1,81.83,78Zm.73,3.27c.41,0,.62-.42.62-1.26,0-1-.21-1.48-.62-1.48s-.46.19-.54.57A4.73,4.73,0,0,0,82,80Q82,81.27,82.56,81.27Zm0-3.72c.36,0,.55-.39.55-1.15s-.19-1.05-.55-1.05S82,75.7,82,76.4,82.19,77.55,82.57,77.55Z"/><path class="cls-1" d="M68,93h.47V91.4a2.82,2.82,0,0,1,.17-1.17,1,1,0,0,1,1-.53,1.5,1.5,0,0,1,.63.14v1a.86.86,0,0,0-.39-.12.37.37,0,0,0-.4.28,2,2,0,0,0,0,.53V93h.78v.74h-.78v4.31h-.94V93.77H68Z"/><path class="cls-1" d="M73.86,89.78h.79L70.8,99.11H70Z"/><path class="cls-1" d="M77.66,90.54v4.73h.48V96h-.48v2.07h-1V96h-2v-.86l2-4.61Zm-1,4.73v-3.2l-1.24,3.2Z"/><path class="cls-1" d="M79.49,98.16a.58.58,0,0,1-.43-.18.59.59,0,0,1-.17-.43.54.54,0,0,1,.17-.42.57.57,0,0,1,.43-.17.57.57,0,0,1,.42.17.54.54,0,0,1,.18.42.6.6,0,0,1-.18.43A.58.58,0,0,1,79.49,98.16Z"/><path class="cls-1" d="M82.56,90.45c.77,0,1.28.49,1.53,1.48a15.82,15.82,0,0,1,0,4.76c-.25,1-.76,1.48-1.53,1.48s-1.29-.5-1.53-1.48a15.82,15.82,0,0,1,0-4.76C81.27,90.94,81.78,90.45,82.56,90.45Zm.73,3.86a14,14,0,0,0-.11-2.07c-.11-.6-.32-.89-.62-.89s-.52.29-.62.89a19.53,19.53,0,0,0,0,4.14c.1.59.31.89.62.89s.51-.3.62-.89A14,14,0,0,0,83.29,94.31Z"/><path class="cls-1" d="M68,109h.47V107.4a2.82,2.82,0,0,1,.17-1.17,1,1,0,0,1,1-.53,1.5,1.5,0,0,1,.63.14v1a.86.86,0,0,0-.39-.12.37.37,0,0,0-.4.28,2,2,0,0,0,0,.53V109h.78v.74h-.78v4.31h-.94v-4.31H68Z"/><path class="cls-1" d="M73.86,105.78h.79l-3.85,9.33H70Z"/><path class="cls-1" d="M75.56,106.54H78v.86H76.33l-.24,1.91a1.75,1.75,0,0,1,1.5.56,2.33,2.33,0,0,1,.47,1.56,3.52,3.52,0,0,1-.46,1.89,1.85,1.85,0,0,1-1.66.85,2.92,2.92,0,0,1-1.17-.31L75,113a2,2,0,0,0,.88.3,1,1,0,0,0,.9-.59,2.44,2.44,0,0,0,.23-1.09c0-1-.44-1.48-1.31-1.48a2.57,2.57,0,0,0-.61.09Z"/><path class="cls-1" d="M79.49,114.16a.58.58,0,0,1-.43-.18.59.59,0,0,1-.17-.43.54.54,0,0,1,.17-.42.57.57,0,0,1,.43-.17.57.57,0,0,1,.42.17.54.54,0,0,1,.18.42.6.6,0,0,1-.18.43A.58.58,0,0,1,79.49,114.16Z"/><path class="cls-1" d="M82.47,106.54h1.08l-1.47,3.22,0,0a1.1,1.1,0,0,1,.77-.34,1.14,1.14,0,0,1,1.13.84,4.83,4.83,0,0,1,.19,1.53,3.86,3.86,0,0,1-.26,1.61,1.57,1.57,0,0,1-2.73-.09,4.26,4.26,0,0,1-.26-1.71,7.78,7.78,0,0,1,.44-2.64A26.71,26.71,0,0,1,82.47,106.54Zm.7,5.28a4.83,4.83,0,0,0-.07-.91c-.09-.38-.26-.57-.52-.57-.42,0-.62.49-.62,1.47s.2,1.46.62,1.46S83.17,112.78,83.17,111.82Z"/><line class="cls-9" x1="64.76" y1="63.73" x2="51.87" y2="63.73"/><line class="cls-10" x1="64.76" y1="78.75" x2="51.87" y2="78.75"/><line class="cls-11" x1="64.76" y1="93.78" x2="51.87" y2="93.78"/><line class="cls-12" x1="64.76" y1="108.8" x2="51.87" y2="108.8"/><path class="cls-1" d="M127.78,167.36h1.77v7.54h-1v-6.68h-.76Z"/><path class="cls-1" d="M134.83,166.6h.82l-4,9.33h-.84Z"/><path class="cls-1" d="M138.75,167.36v4.73h.49v.74h-.49v2.07h-1v-2.07h-2.09V172l2.09-4.61Zm-1,4.73v-3.2l-1.28,3.2Z"/><path class="cls-1" d="M140.66,167.26l.83.24-1,2.65L140,170Zm1.41,0,.83.24-1,2.65-.52-.14Z"/><path class="cls-1" d="M165,167.36h1.77v7.54h-1v-6.68H165Z"/><path class="cls-1" d="M172,166.6h.81l-4,9.33h-.84Z"/><path class="cls-1" d="M174.4,171.43h-.3v-.9h.13a1.14,1.14,0,0,0,.88-.27,1.44,1.44,0,0,0,.2-.88c0-.81-.2-1.21-.6-1.21s-.61.33-.61,1v.23h-1v-.07a3,3,0,0,1,.26-1.45,1.4,1.4,0,0,1,1.31-.59q1.62,0,1.62,1.95a3.48,3.48,0,0,1-.13,1.06,1.09,1.09,0,0,1-.74.72v0q1,.22,1,1.74c0,1.49-.6,2.23-1.78,2.23s-1.64-.58-1.64-1.75V173h1v.24c0,.56.21.84.65.84a.63.63,0,0,0,.63-.52,2.81,2.81,0,0,0,.1-.89C175.34,171.85,175,171.43,174.4,171.43Z"/><path class="cls-1" d="M177.86,167.26l.84.24-1,2.65-.53-.14Zm1.41,0,.84.24-1,2.65-.53-.14Z"/><path class="cls-1" d="M215.29,167.36h1.77v7.54h-1v-6.68h-.76Z"/><path class="cls-1" d="M222.34,166.6h.82l-4,9.33h-.84Z"/><path class="cls-1" d="M225,167.27c1.16,0,1.73.62,1.73,1.86a8.94,8.94,0,0,1-1.34,3.69l-.66,1.22h1.93v.86h-3.42l1.89-3.87a4.61,4.61,0,0,0,.55-2q0-.9-.69-.9c-.29,0-.48.2-.56.6a6.65,6.65,0,0,0,0,.84v.2h-1v-.27a3.49,3.49,0,0,1,.27-1.59A1.45,1.45,0,0,1,225,167.27Z"/><path class="cls-1" d="M228.17,167.26l.83.24-1,2.65-.53-.14Zm1.41,0,.83.24-1,2.65-.52-.14Z"/><path class="cls-1" d="M292,167.27c1.15,0,1.73.62,1.73,1.86a9.1,9.1,0,0,1-1.34,3.69l-.66,1.22h1.93v.86h-3.43l1.89-3.87a4.65,4.65,0,0,0,.56-2q0-.9-.69-.9c-.3,0-.48.2-.56.6a5.12,5.12,0,0,0,0,.84v.2h-1.05v-.27a3.49,3.49,0,0,1,.27-1.59A1.44,1.44,0,0,1,292,167.27Z"/><path class="cls-1" d="M297.8,166.6h.81l-4,9.33h-.83Z"/><path class="cls-1" d="M300.16,171.43h-.3v-.9H300a1.15,1.15,0,0,0,.89-.27,1.45,1.45,0,0,0,.19-.88c0-.81-.19-1.21-.59-1.21s-.61.33-.61,1v.23h-1v-.07a3,3,0,0,1,.26-1.45,1.4,1.4,0,0,1,1.31-.59c1.07,0,1.61.65,1.61,1.95a3.54,3.54,0,0,1-.12,1.06,1.09,1.09,0,0,1-.74.72v0q1,.22,1,1.74c0,1.49-.6,2.23-1.79,2.23s-1.63-.58-1.63-1.75V173h1v.24c0,.56.22.84.65.84a.64.64,0,0,0,.64-.52,3.22,3.22,0,0,0,.09-.89C301.09,171.85,300.78,171.43,300.16,171.43Z"/><path class="cls-1" d="M303.62,167.26l.83.24-1,2.65-.52-.14Zm1.41,0,.84.24-1,2.65-.53-.14Z"/><path class="cls-1" d="M51.17,166.54v1a1.54,1.54,0,0,0-.88-.32.87.87,0,0,0-.66.28,1,1,0,0,0-.25.69,1.11,1.11,0,0,0,.29.82l.78.83a6.19,6.19,0,0,1,.8,1,2.45,2.45,0,0,1,.3,1.22,2,2,0,0,1-.48,1.38,1.67,1.67,0,0,1-1.34.59,1.81,1.81,0,0,1-1.14-.36v-1a1.82,1.82,0,0,0,1,.39.79.79,0,0,0,.69-.32,1.12,1.12,0,0,0,.22-.73,1.77,1.77,0,0,0-.57-1.21c-.15-.15-.49-.5-1-1a2.39,2.39,0,0,1-.56-1.53,2.05,2.05,0,0,1,.43-1.36,1.6,1.6,0,0,1,1.31-.57A2.25,2.25,0,0,1,51.17,166.54Z"/><path class="cls-1" d="M55.21,171.59H53.07c0,1.06.2,1.58.6,1.58s.61-.31.61-.94h.9a2,2,0,0,1-.35,1.24,1.37,1.37,0,0,1-1.17.54,1.34,1.34,0,0,1-1.34-.88,4.62,4.62,0,0,1-.24-1.69c0-1.76.52-2.64,1.55-2.64s1.58.88,1.58,2.64Zm-2.14-.67h1.15c0-.85-.2-1.28-.59-1.28s-.43.17-.51.49A3.61,3.61,0,0,0,53.07,170.92Z"/><path class="cls-1" d="M56.92,168.88v.58A1.14,1.14,0,0,1,58,168.8a.91.91,0,0,1,.93.54,3.3,3.3,0,0,1,.14,1.12v3.47h-1v-3.49c0-.53-.19-.8-.57-.8a.52.52,0,0,0-.54.41,3.63,3.63,0,0,0,0,.73v3.15H56v-5.05Z"/><path class="cls-1" d="M61.92,169v.89a1.08,1.08,0,0,0-.72-.27.75.75,0,0,0-.47.15.47.47,0,0,0-.19.39.91.91,0,0,0,.43.66c.47.36.72.57.77.61a1.51,1.51,0,0,1,.42,1.06,1.5,1.5,0,0,1-.4,1.09,1.46,1.46,0,0,1-1.09.41,1.63,1.63,0,0,1-.84-.24v-.92a1.26,1.26,0,0,0,.8.32.57.57,0,0,0,.65-.64,1.15,1.15,0,0,0-.47-.74l-.74-.58a1.41,1.41,0,0,1-.42-1A1.33,1.33,0,0,1,61,168.8,1.82,1.82,0,0,1,61.92,169Z"/><path class="cls-1" d="M64.28,174c-1.1,0-1.64-.86-1.64-2.59s.54-2.62,1.64-2.62,1.63.88,1.63,2.62S65.37,174,64.28,174Zm0-.86c.31,0,.51-.24.6-.73a6.38,6.38,0,0,0,.05-1,6.88,6.88,0,0,0-.05-1c-.09-.48-.29-.73-.6-.73s-.51.25-.6.73a6.29,6.29,0,0,0,0,1,5.87,5.87,0,0,0,0,1C63.77,172.91,64,173.15,64.28,173.15Z"/><path class="cls-1" d="M67.62,168.88v.62a1.21,1.21,0,0,1,1.13-.7v.93h-.17c-.64,0-1,.31-1,1v3.17h-1v-5.05Z"/><path class="cls-1" d="M71.72,166.39h2.79v.86H72.75v2.38h1.58v.86H72.75v3.44h-1Z"/><path class="cls-1" d="M76.55,174c-1.09,0-1.64-.86-1.64-2.59s.55-2.62,1.64-2.62,1.64.88,1.64,2.62S77.64,174,76.55,174Zm0-.86c.31,0,.52-.24.61-.73a8.88,8.88,0,0,0,0-1,9.58,9.58,0,0,0,0-1c-.09-.48-.3-.73-.61-.73s-.51.25-.6.73a7.71,7.71,0,0,0,0,1,7.18,7.18,0,0,0,0,1C76,172.91,76.24,173.15,76.55,173.15Z"/><path class="cls-1" d="M79.9,168.88v.62a1.2,1.2,0,0,1,1.12-.7v.93h-.17c-.63,0-.95.31-.95,1v3.17h-1v-5.05Z"/><path class="cls-1" d="M82.67,168.88v.62a1.09,1.09,0,0,1,1-.7.88.88,0,0,1,1,.7h0a1.12,1.12,0,0,1,1.07-.7c.77,0,1.15.41,1.15,1.22v3.91h-1v-3.54c0-.5-.17-.75-.52-.75a.54.54,0,0,0-.57.37,3.39,3.39,0,0,0,0,.71v3.21h-1V170.5a1.64,1.64,0,0,0-.07-.58.47.47,0,0,0-.48-.28.5.5,0,0,0-.52.38,2.72,2.72,0,0,0-.06.7v3.21h-1v-5.05Z"/><path class="cls-1" d="M89.84,173.93v-.65a1.38,1.38,0,0,1-.35.53.89.89,0,0,1-.62.2c-.82,0-1.24-.89-1.24-2.67s.43-2.54,1.27-2.54a1,1,0,0,1,.94.64v-.56h1v5.05Zm-.58-.76c.41,0,.61-.59.61-1.77s-.2-1.76-.61-1.76-.5.25-.59.73a10.74,10.74,0,0,0,0,2.07C88.76,172.93,89,173.17,89.26,173.17Z"/><path class="cls-1" d="M91.9,167.45h1v1.43h.51v.74h-.51v4.31h-1v-4.31h-.53v-.74h.53Z"/><path class="cls-1" d="M94.58,170a.6.6,0,0,1-.44-.18.58.58,0,0,1-.18-.43.58.58,0,0,1,.18-.42.65.65,0,0,1,.88,0,.58.58,0,0,1,.18.42.58.58,0,0,1-.18.43A.6.6,0,0,1,94.58,170Zm0,4a.6.6,0,0,1-.44-.18.58.58,0,0,1-.18-.43.58.58,0,0,1,.18-.42.65.65,0,0,1,.88,0,.58.58,0,0,1,.18.42.58.58,0,0,1-.18.43A.6.6,0,0,1,94.58,174Z"/><polyline class="cls-9" points="32.21 35.33 58.32 35.33 102.7 42.48 193.26 65.69 274.35 91.87 306.5 105.94"/><polyline class="cls-10" points="33.35 33.66 91.73 35.33 152.35 36.48 211.73 40.05 238.17 42.23 278.84 57 306.59 70.63"/><polyline class="cls-11" points="34.6 33.52 84.24 33.66 136.38 36.18 198.73 39.27 254.89 42.48 292.06 45.62 306.5 53.81"/><polyline class="cls-12" points="36.59 33.76 89.5 33.92 134.89 35.33 196.26 37.77 237.42 40.3 287.32 43.66 307.38 46.84"/></g></g></svg>